<mxfile host="app.diagrams.net" modified="2024-01-25T08:02:06.760Z" agent="Mozilla/5.0 (Macintosh; Intel Mac OS X 10_15_7) AppleWebKit/605.1.15 (KHTML, like Gecko) Version/17.2.1 Safari/605.1.15" version="23.0.1" etag="KMJSM0XLs6sh7O9_CzOT" type="github">
  <diagram name="第 1 页" id="uOIuzUEdRU320eP_Xka3">
    <mxGraphModel>
      <root>
        <mxCell id="0" />
        <mxCell id="1" parent="0" />
      </root>
    </mxGraphModel>
  </diagram>
</mxfile>
